<mxfile host="65bd71144e">
    <diagram id="WY9ITLfWl17MfPur2EN1" name="Page-1">
        <mxGraphModel dx="996" dy="548" grid="1" gridSize="10" guides="1" tooltips="1" connect="1" arrows="1" fold="1" page="1" pageScale="1" pageWidth="2000" pageHeight="2000" math="0" shadow="0">
            <root>
                <mxCell id="0"/>
                <mxCell id="1" parent="0"/>
                <mxCell id="11" value="" style="rounded=1;whiteSpace=wrap;html=1;fillColor=none;dashed=1;" vertex="1" parent="1">
                    <mxGeometry x="1070" y="1010" width="220" height="100" as="geometry"/>
                </mxCell>
                <mxCell id="5" value="" style="rounded=1;whiteSpace=wrap;html=1;fillColor=none;" vertex="1" parent="1">
                    <mxGeometry x="810" y="980" width="500" height="140" as="geometry"/>
                </mxCell>
                <mxCell id="9" value="" style="rounded=1;whiteSpace=wrap;html=1;fillColor=none;dashed=1;" vertex="1" parent="1">
                    <mxGeometry x="830" y="1010" width="220" height="100" as="geometry"/>
                </mxCell>
                <mxCell id="2" value="ImageIdsStream" style="rounded=1;whiteSpace=wrap;html=1;fillColor=none;" vertex="1" parent="1">
                    <mxGeometry x="600" y="1040" width="120" height="60" as="geometry"/>
                </mxCell>
                <mxCell id="4" value="UiStateStream" style="rounded=1;whiteSpace=wrap;html=1;fillColor=none;" vertex="1" parent="1">
                    <mxGeometry x="1400" y="1040" width="120" height="60" as="geometry"/>
                </mxCell>
                <mxCell id="6" value="ImagesStream" style="text;html=1;strokeColor=none;fillColor=none;align=center;verticalAlign=middle;whiteSpace=wrap;rounded=0;" vertex="1" parent="1">
                    <mxGeometry x="830" y="980" width="90" height="20" as="geometry"/>
                </mxCell>
                <mxCell id="7" value="ListingsApi&lt;br&gt;GetImages" style="rounded=1;whiteSpace=wrap;html=1;fillColor=none;" vertex="1" parent="1">
                    <mxGeometry x="880" y="1040" width="120" height="60" as="geometry"/>
                </mxCell>
                <mxCell id="8" value="Base64ToBitmap" style="rounded=1;whiteSpace=wrap;html=1;fillColor=none;" vertex="1" parent="1">
                    <mxGeometry x="1120" y="1040" width="120" height="60" as="geometry"/>
                </mxCell>
                <mxCell id="10" value="Schedulers.io Thread Pool" style="text;html=1;strokeColor=none;fillColor=none;align=center;verticalAlign=middle;whiteSpace=wrap;rounded=0;" vertex="1" parent="1">
                    <mxGeometry x="840" y="1010" width="200" height="30" as="geometry"/>
                </mxCell>
                <mxCell id="12" value="Schedulers.computation Thread Pool" style="text;html=1;strokeColor=none;fillColor=none;align=center;verticalAlign=middle;whiteSpace=wrap;rounded=0;" vertex="1" parent="1">
                    <mxGeometry x="1080" y="1010" width="200" height="30" as="geometry"/>
                </mxCell>
                <mxCell id="14" value="" style="endArrow=classic;html=1;" edge="1" parent="1" source="2" target="7">
                    <mxGeometry width="50" height="50" relative="1" as="geometry">
                        <mxPoint x="770" y="1180" as="sourcePoint"/>
                        <mxPoint x="820" y="1130" as="targetPoint"/>
                    </mxGeometry>
                </mxCell>
                <mxCell id="15" value="" style="endArrow=classic;html=1;" edge="1" parent="1" source="7" target="8">
                    <mxGeometry width="50" height="50" relative="1" as="geometry">
                        <mxPoint x="800" y="1080" as="sourcePoint"/>
                        <mxPoint x="890" y="1080" as="targetPoint"/>
                    </mxGeometry>
                </mxCell>
                <mxCell id="16" value="" style="endArrow=classic;html=1;" edge="1" parent="1" source="8" target="4">
                    <mxGeometry width="50" height="50" relative="1" as="geometry">
                        <mxPoint x="800" y="1080" as="sourcePoint"/>
                        <mxPoint x="890" y="1080" as="targetPoint"/>
                    </mxGeometry>
                </mxCell>
                <mxCell id="17" value="Bitmap" style="text;html=1;strokeColor=none;fillColor=none;align=center;verticalAlign=middle;whiteSpace=wrap;rounded=0;dashed=1;" vertex="1" parent="1">
                    <mxGeometry x="1310" y="1050" width="80" height="20" as="geometry"/>
                </mxCell>
                <mxCell id="18" value="ImageId" style="text;html=1;strokeColor=none;fillColor=none;align=center;verticalAlign=middle;whiteSpace=wrap;rounded=0;dashed=1;" vertex="1" parent="1">
                    <mxGeometry x="730" y="1050" width="80" height="20" as="geometry"/>
                </mxCell>
                <mxCell id="19" value="Base64" style="text;html=1;strokeColor=none;fillColor=none;align=center;verticalAlign=middle;whiteSpace=wrap;rounded=0;dashed=1;" vertex="1" parent="1">
                    <mxGeometry x="1000" y="1050" width="50" height="20" as="geometry"/>
                </mxCell>
            </root>
        </mxGraphModel>
    </diagram>
</mxfile>